<svg width="1372" height="989" viewBox="0 0 1372 989" fill="none" xmlns="http://www.w3.org/2000/svg">
<path d="M1113.65 157.849C1098.47 151.947 1083.01 147.912 1067.3 145.207C1051.46 142.491 1035.52 139.363 1019.56 138.122C992.175 135.723 964.619 133.715 937.084 133.193C905.575 132.631 874.086 133.555 842.703 134.892C797.412 136.901 752.195 141.478 707.283 147.428C642.82 156.04 579.062 167.944 516.218 183.966C513.135 184.805 510.178 185.79 507.283 187.723C515.454 186.739 523.761 185.767 531.932 184.783C584.993 178.118 638.171 171.731 691.633 168.739C717.813 167.267 744.046 166.879 770.416 166.501C806.677 165.949 842.761 167.675 878.845 171.156C967.084 179.636 1050.56 203.528 1128.01 246.646C1174.96 272.689 1218.84 302.945 1257.69 339.69C1282.35 363.055 1304.54 388.252 1321.03 417.862C1330.9 435.626 1337.82 454.24 1340.37 474.402C1343.98 503.82 1337.2 530.947 1322.86 556.675C1310.43 578.91 1293.86 597.856 1274.59 614.568C1240.89 643.918 1202.16 665.726 1161.25 683.723C1095.75 712.624 1027.09 731.161 956.903 744.589C898.137 755.802 838.982 763.207 779.216 766.114C747.539 767.698 715.914 768.611 684.206 768.843C657.983 769.097 631.707 768.268 605.452 767.171C577.151 765.915 548.872 764.39 520.665 761.927C495.175 759.81 469.895 756.765 444.52 753.173C414.802 748.974 385.241 744.517 355.774 738.853C300.638 728.091 246.79 713.113 196.178 688.269C166.172 673.66 138.766 655.611 115.626 632.094C84.7313 600.69 65.5291 563.585 61.8057 519.724C58.7996 484.283 68.3294 451.706 86.4719 421.282C101.124 396.926 119.512 375.694 140.356 356.406C190.609 309.998 248.965 275.821 311.006 247.192C350.279 229.067 390.834 213.875 432.05 200.758C511.253 175.486 592.285 158.451 666.134 147.331C715.692 139.854 765.377 134.275 815.398 131.42C845.302 129.698 875.259 129.06 905.195 128.69C924.285 128.42 943.282 129.358 962.425 130.172C975.285 130.632 988.281 131.103 1001.08 132.368C1031.15 135.516 1061.17 139.335 1090.27 148.071C1096.16 149.879 1101.88 152.212 1107.6 154.545C1109.87 155.262 1111.68 156.751 1113.65 157.849ZM542.195 753.214C554.363 753.756 567.506 754.103 580.597 755.121C612.255 757.313 643.996 758.432 675.715 758.066C702.766 757.741 729.671 757.54 756.649 756.4C810.866 754.276 864.936 748.768 918.573 739.989C998.327 727.036 1076.24 707.735 1150.47 675.871C1180.7 662.844 1209.87 647.71 1236.96 629.179C1263.33 611.13 1287.31 590.332 1305.68 564.107C1318.01 546.72 1326.63 527.561 1329.78 506.493C1333.66 479.546 1328.37 454.045 1315.98 429.88C1301.68 402.059 1281.85 378.26 1259.83 356.313C1220.87 317.402 1176.12 285.999 1128.03 258.788C1049.45 214.233 964.645 189.833 874.916 181.102C857.084 179.311 839.325 178.335 821.399 177.75C789.501 176.888 757.456 176.15 725.485 176.227C687.346 176.229 649.293 178.666 611.176 181.907C575.399 185.061 539.601 188.482 503.792 192.038C492.454 193.18 480.895 193.63 470.093 196.702C418.189 211.416 367.514 229.733 318.561 252.366C257.936 280.431 200.743 313.754 151.161 358.595C129.908 377.851 110.587 398.741 95.6509 423.209C79.6252 449.347 70.0512 477.2 70.5168 508.261C71.0346 538.653 79.8586 566.318 96.2443 592.008C117.144 624.928 146.693 648.944 180.466 668.027C218.836 689.761 260.243 704.177 302.72 715.438C355.948 729.559 410.276 738.37 464.897 745.18C490.293 748.504 515.782 750.621 542.195 753.214Z" fill="#FF0BC9"/>
<path d="M166.261 794.262C117.575 827.572 64.9418 853.426 14.387 882.544C11.3774 884.198 8.25224 885.574 5.10625 887.218C2.40064 888.491 0.94233 887.838 0.238003 884.546C46.7548 856.193 94.0272 828.709 140.554 800.222C140.323 799.664 140.092 799.107 139.725 798.539C136.338 799.759 132.95 800.979 129.573 802.066C111.597 807.413 93.4951 812.615 75.5296 817.828C73.2852 818.463 70.6734 818.529 68.2189 818.338C64.2643 818.031 63.1404 814.841 62.4257 811.683C61.7214 808.391 64.2593 807.509 66.6505 806.75C80.3054 802.282 93.9393 798.081 107.479 793.333C122.57 788.032 137.577 782.049 152.69 776.48C158.196 774.48 163.933 773.037 169.69 771.327C171.096 770.897 172.921 770.364 173.97 770.985C180.17 774.165 185.371 770.793 190.867 768.927C194.674 767.604 198.46 766.549 202.216 769.405C202.271 773.995 200.08 777.467 196.841 780.318C172.254 801.877 152.43 827.45 134.297 854.232C129.8 860.897 125.429 867.707 120.922 874.505C119.989 875.917 118.93 877.183 117.62 878.161C119.993 861.753 126.227 846.86 136.175 833.605C145.997 820.205 156.187 807.373 166.261 794.262Z" fill="#FF0BC9"/>
<path d="M1200.65 259.849C1205.09 250.481 1209.47 241.784 1213.58 232.931C1222.2 213.907 1233.04 196.269 1245.46 179.429C1248.37 175.474 1250.9 171.219 1253.94 167.408C1257.44 162.959 1260.18 163.037 1265.48 167.226C1259.21 177.26 1252.67 187.274 1246.66 197.463C1240.66 207.653 1234.9 218.132 1229.94 229.077C1244.93 214.46 1259.79 199.699 1275.04 185.371C1290.59 170.663 1306.39 156.244 1322.44 142.114C1338.2 128.231 1353.07 113.47 1370.21 101.179C1370.74 101.489 1371.12 101.789 1371.65 102.1C1371.56 103.172 1371.73 104.534 1371.15 105.028C1363.05 112.088 1354.44 118.703 1346.61 125.918C1326.82 144.073 1307.03 162.094 1287.88 180.839C1268.88 199.326 1250.77 218.691 1232.28 237.757C1230.94 239.137 1229.99 240.682 1228.02 243.092C1251.22 234.104 1273.18 225.155 1295.35 217.032C1317.24 209.021 1339.14 200.877 1361.47 194.116C1361.71 194.673 1361.94 195.231 1362.18 195.654C1359.89 196.825 1357.6 198.131 1355.17 199.291C1315.28 218.312 1275.02 236.764 1233.95 253.265C1226.45 256.324 1219.03 259.929 1211.75 263.545C1203.48 267.623 1203.47 267.757 1200.65 259.849Z" fill="#FF0BC9"/>
</svg>
