<svg width="96" height="73" viewBox="0 0 96 73" fill="none" xmlns="http://www.w3.org/2000/svg">
<path d="M15.7231 64.6188C50.9119 53.3411 76.7037 32.1294 95.5767 0.835829C91.9974 0.45264 91.0299 2.57458 90.12 3.99673C82.8184 14.5795 73.3064 23.1305 63.9694 31.6959C50.532 44.0625 34.6416 51.9995 17.3498 57.7074C16.6212 57.9996 15.8267 58.0221 14.0484 58.2278C19.4581 51.3641 27.9178 48.0985 31.3517 40.6316C30.9359 40.3331 30.5346 39.8597 30.1189 39.5612C25.6172 42.8889 21.0208 46.2969 16.4389 49.5299C11.9372 52.8576 7.19468 55.9013 2.69299 59.229C-0.592191 61.6883 -0.633623 64.3269 2.91047 66.2044C7.46098 68.6932 12.3388 70.4165 17.1076 72.3949C17.618 72.6131 18.3034 72.8458 18.8426 72.7141C20.2052 72.21 21.327 71.4218 22.7041 70.7427C22.0908 69.6353 21.6814 68.1924 20.8643 67.4205C19.8065 66.3645 18.1661 65.9651 15.7231 64.6188Z" fill="#11F200"/>
</svg>
