<svg width="521" height="17" viewBox="0 0 521 17" fill="none" xmlns="http://www.w3.org/2000/svg">
<path d="M520.074 8.98064C517.428 8.87927 515.002 8.84379 512.355 8.80509C509.708 8.76639 507.282 8.66824 504.636 8.56687C498.903 8.35768 493.392 8.08904 487.659 7.87985C476.854 7.47114 465.829 7.05921 455.021 6.8385C445.097 6.56803 434.951 6.357 425.024 6.21186C422.377 6.17316 419.73 6.13445 417.304 6.09898C407.376 6.01651 397.45 5.87137 387.522 5.7889C364.356 5.63825 340.97 5.48438 317.803 5.45906C295.076 5.4402 272.35 5.42134 249.843 5.46837C238.81 5.49511 227.557 5.51862 216.524 5.54536C204.386 5.68131 192.25 5.69193 180.333 5.76843C155.397 5.96799 130.682 6.1081 105.745 6.30766C84.1179 6.49292 62.7083 6.86942 41.2953 7.43392C27.6075 7.86063 13.6979 8.34678 0.00899663 8.83616C15.6653 9.37849 31.5456 9.73605 47.427 10.0309C57.7948 10.1825 68.1636 10.2714 78.3119 10.3571C84.9308 10.3912 91.5507 10.3627 98.3913 10.3373C102.584 10.3359 106.556 10.2686 110.529 10.2013C121.344 10.046 132.378 9.95664 143.192 9.80134C155.772 9.67184 168.132 9.47645 180.711 9.34695C193.511 9.22067 206.531 9.09763 219.331 8.97135C230.806 8.88839 242.502 8.80866 254.198 8.72893C265.452 8.64275 276.926 8.62246 288.18 8.59894C299.654 8.57865 310.907 8.55514 322.381 8.53485C334.076 8.51778 345.548 8.62283 357.242 8.66843C378.423 8.72739 399.6 8.97435 420.999 9.22453C432.911 9.39869 444.604 9.4443 456.518 9.49312C468.212 9.53873 479.906 9.58433 491.38 9.56404C496.013 9.5691 500.867 9.57739 505.502 9.51979C507.709 9.48937 510.137 9.46218 512.345 9.3691C514.332 9.27279 516.321 9.11382 518.307 9.08017C518.97 9.02718 519.413 8.97096 520.074 8.98064Z" fill="#0ED100"/>
</svg>
