<svg width="68" height="123" viewBox="0 0 68 123" fill="none" xmlns="http://www.w3.org/2000/svg">
<path d="M67.3864 64.8053C67.1074 69.4011 66.8284 73.9968 66.5494 78.5372C66.5494 78.7587 66.4936 78.9802 66.4936 79.2017C66.3261 87.1197 65.9355 95.0931 65.9913 103.011C65.9913 107.053 66.661 111.151 67.1632 115.193C67.5538 118.127 66.9958 120.674 65.0427 123C64.5963 122.834 64.2615 122.834 64.0383 122.668C61.4715 120.785 58.2908 119.955 55.8914 117.74C53.6036 115.525 51.0926 113.532 48.6931 111.428C42.6109 106.278 36.5286 101.073 30.4463 95.9237C28.9397 94.7055 27.6563 93.3766 26.875 91.5494C26.038 89.6114 26.3728 88.9469 28.3817 88.504C29.9441 88.1718 31.3949 88.3933 32.7899 89.1131C38.0352 91.6601 42.555 95.3146 46.8517 99.1352C47.9677 100.132 49.0837 101.073 50.2555 102.014C50.4229 101.904 50.5903 101.793 50.7577 101.682C50.4787 101.018 50.2555 100.353 49.9207 99.7443C45.1219 90.7742 40.2114 81.9149 35.58 72.8894C25.5916 53.3989 15.7149 33.7976 5.83818 14.2518C4.05256 10.708 2.43434 7.1643 0.760317 3.5652C0.369712 2.67927 0.0907137 1.79333 0.146514 0.685913C0.425518 0.962767 0.704515 1.18425 0.871917 1.51648C5.61498 10.4312 10.2464 19.3459 15.0453 28.2052C25.0894 46.8652 35.1894 65.5805 45.3451 84.1851C49.9207 92.5461 54.7196 100.852 59.4069 109.157C59.7417 109.766 60.1881 110.32 60.8577 110.818C60.6345 102.956 60.3555 95.1485 61.1367 87.3412C62.0295 79.5893 64.5963 72.225 67.3864 64.8053Z" fill="#11F200"/>
</svg>
