<svg width="160" height="202" viewBox="0 0 160 202" fill="none" xmlns="http://www.w3.org/2000/svg">
<path d="M133.251 188.753C125.572 191.418 118.172 194.146 109.698 197.071C113.006 201.202 117.37 202.046 121.112 201.132C132.339 198.391 143.631 195.371 154.558 191.386C160.817 189.134 161.274 183.359 156.224 179.127C147.887 171.944 139.141 165.256 130.459 158.289C129.965 157.883 129.363 157.305 128.912 157.35C127.17 157.248 125.471 157.597 123.664 157.775C123.9 159.298 123.446 161.252 124.263 162.172C127.034 165.446 130.042 168.334 132.878 171.329C134.403 172.997 135.993 174.387 136.851 177.668C133.604 177.077 130.186 176.595 126.939 176.005C60.9371 160.579 13.8268 104.918 9.92693 36.7314C9.46116 27.9558 10.006 19.2627 9.99181 10.4427C9.97288 7.35254 9.78183 4.37024 9.7629 1.28007C9.09654 0.981841 8.36545 0.962803 7.6991 0.664572C6.47218 2.14937 4.51416 3.61514 4.23308 5.46162C2.98087 11.496 1.72866 17.5304 1.31492 23.7552C-3.03724 85.6601 32.8019 145.522 91.0746 172.712C102.23 177.89 114.291 181.069 125.878 185.022C128.329 185.872 130.737 186.272 133.252 186.843C133.23 187.573 133.38 188.194 133.251 188.753Z" fill="#11F200"/>
</svg>
