<svg width="61" height="84" viewBox="0 0 61 84" fill="none" xmlns="http://www.w3.org/2000/svg">
<g clip-path="url(#clip0_9_597)">
<path d="M22.9604 38.4382C22.5437 37.2509 23.5288 35.6555 23.9076 34.5424C24.4381 33.0583 25.0443 31.6113 25.7263 30.2014C27.0903 27.2703 28.6058 24.3763 30.3865 21.6679C33.8722 16.4735 38.2673 12.1325 42.776 7.82864C44.8219 5.8622 46.8679 3.89577 49.0654 2.07775C49.4064 1.81803 50.3536 0.964676 50.5809 0.964676C51.225 0.964676 51.0356 1.03888 51.1493 1.55832C51.2629 2.00355 51.1493 2.67139 51.1871 3.15372C51.2629 4.71203 51.3766 6.30743 51.4145 7.86574C51.566 14.3216 50.8462 20.7774 49.7853 27.159C49.2548 30.4611 48.5729 33.5778 47.7393 36.8057C46.8679 40.1449 46.489 43.5583 45.6555 46.8975C45.5418 47.2686 46.6406 47.1202 46.7163 46.7491C47.5499 43.4099 47.9288 39.9965 48.8002 36.6573C49.6716 33.318 50.3536 30.053 50.9219 26.6396C52.0586 19.6272 52.7406 12.5778 52.3996 5.49118C52.3617 4.71203 52.2859 3.93287 52.2859 3.15372C52.248 2.41167 52.4375 1.44701 52.248 0.742061C52.0965 0.185524 51.9449 -0.0370906 51.3008 1.18613e-05C50.4673 0.0371143 49.6337 0.816266 49.0275 1.2615C47.6257 2.30037 46.3753 3.52475 45.0871 4.71203C40.0101 9.23853 35.1604 13.8392 31.0685 19.2562C28.7194 22.3728 26.825 25.7491 25.1201 29.2739C24.3244 30.9435 23.5666 32.6131 22.9226 34.3569C22.4679 35.6184 21.3691 37.3622 21.8617 38.6979C22.0132 39.0689 23.0741 38.7721 22.9604 38.4382Z" fill="#11F200"/>
<path d="M21.71 39.0689C24.5895 39.6997 27.0901 41.0725 29.8181 42.2226C32.546 43.3728 35.274 44.523 38.0019 45.7103C40.0479 46.6007 42.4728 48.5301 44.746 48.6043C45.9206 48.6414 46.11 48.0106 46.3374 46.9718C46.4131 46.5636 45.3523 46.7491 45.2765 47.1202C45.0113 48.3446 44.5566 47.9735 43.3821 47.4541C42.4349 47.0089 41.5256 46.4523 40.5783 46.0071C38.4945 45.0053 36.297 44.152 34.1752 43.2615C30.3106 41.5548 26.4839 39.3658 22.392 38.4753C22.051 38.4011 21.1038 38.9205 21.71 39.0689Z" fill="#11F200"/>
<path d="M34.289 14.841C34.2511 14.9152 34.2132 14.9894 34.1753 15.0636C34.4784 14.9523 34.7436 14.841 35.0467 14.6926C32.4704 14.4329 29.894 13.9506 27.3176 14.6184C25.0064 15.212 22.8846 16.5106 21.1797 18.1802C19.1337 20.2209 17.5424 22.7809 16.0269 25.1926C14.5871 27.5301 12.579 30.3127 12.4275 33.1325C12.4275 33.2067 12.4654 33.2809 12.5412 33.318C13.9809 33.9488 15.5722 33.6149 17.0877 33.6149C17.9213 33.6149 18.7169 33.5778 19.5126 33.5407C20.7629 33.4665 22.0511 32.9841 23.3014 32.947C23.7182 32.947 24.4381 32.3534 23.7182 32.3534C22.089 32.3534 20.5356 32.9099 18.9064 32.9841C17.694 33.0212 16.2921 33.2067 15.0797 33.1325C13.6778 33.0212 13.3747 32.5389 13.7536 31.3516C14.0188 30.424 14.5113 29.5707 15.0039 28.7544C15.7617 27.3816 16.5194 26.0089 17.353 24.7103C19.02 22.1131 20.7629 19.2562 23.2256 17.2898C26.5977 14.5813 30.3107 14.841 34.3648 15.2862C34.6679 15.3233 35.0846 15.2491 35.2362 14.9152C35.2741 14.841 35.312 14.7668 35.3499 14.6926C35.5014 14.3587 34.4405 14.47 34.289 14.841Z" fill="#11F200"/>
<path d="M51.225 20.7032C54.2561 23.1891 57.2114 26.2315 58.7648 29.8304C60.3561 33.4664 59.8635 37.4364 59.4089 41.2209C59.1816 43.0389 58.8027 44.7456 58.3101 46.5265C58.1965 46.8975 58.1207 48.3074 57.8555 48.6042C57.0977 49.4947 55.9611 48.159 55.4306 47.7138C52.5132 45.3763 49.7853 42.8905 47.7393 39.7739C47.5499 39.477 46.489 39.811 46.7542 40.182C48.0045 42.1113 49.5201 43.818 51.225 45.4134C52.7406 46.8233 54.4076 48.4558 56.1505 49.5689C59.03 51.3869 59.4089 46.4523 59.8635 44.8569C60.4698 42.6679 60.7729 40.2562 60.8865 37.9929C61.0002 35.841 61.1517 33.318 60.5076 31.2403C59.1816 26.8251 55.6958 23.1891 52.1722 20.2951C51.907 20.0353 50.9219 20.4435 51.225 20.7032Z" fill="#11F200"/>
<path d="M45.7312 16.1396C44.1399 14.3958 40.8058 15.1378 39.1008 16.3622C36.4865 18.2544 37.3958 21.7421 39.8207 23.3375C42.0561 24.7845 45.0114 25.1926 46.2996 22.3728C46.9058 21.0371 47.0573 19.553 46.6784 18.1431C46.4511 17.2898 46.148 15.8057 45.2387 15.3976C44.9356 15.2491 43.9505 15.6944 44.3673 15.917C45.3524 16.3622 45.8449 19.1078 45.807 20.0354C45.7691 20.8145 45.5797 21.6679 45.2766 22.4099C45.2008 22.6696 45.0493 22.8923 44.8977 23.1149C44.1021 23.3375 43.3064 23.5601 42.5107 23.7827C42.1698 23.7456 41.6393 23.3746 41.3362 23.2262C39.7449 22.3728 38.3052 20.7032 38.6083 18.7739C38.9871 16.3622 42.8896 14.5442 44.7461 16.5477C44.9735 16.8074 45.9965 16.4364 45.7312 16.1396Z" fill="#11F200"/>
<path d="M41.2225 29.7933C40.4269 28.0866 36.8275 28.0124 35.312 28.6431C34.0617 29.1625 32.8114 30.2756 32.3188 31.5C31.6368 33.1696 33.0008 34.7279 34.1753 35.8781C36.0697 37.659 39.366 38.9576 41.2983 36.583C42.3592 35.2845 42.4729 33.8004 42.0182 32.2792C41.6772 31.1661 41.5257 29.7191 40.3132 29.2368C40.0101 29.0883 39.025 29.5707 39.4418 29.7562C40.5406 30.2014 41.3362 33.0583 41.2604 34.1343C41.2225 34.4682 41.071 34.8763 40.9573 35.2103C40.5406 36.3604 40.4648 36.3604 39.1008 36.7686C37.7747 37.1396 37.6989 37.1767 36.7139 36.583C36.1455 36.2491 35.6151 35.9152 35.1604 35.47C34.5542 34.8763 34.0238 34.2085 33.607 33.4664C32.7735 32.0936 33.4555 30.7951 34.5921 29.8304C35.653 28.9028 39.3281 28.2721 40.1238 30.0901C40.3132 30.4611 41.3741 30.1272 41.2225 29.7933Z" fill="#11F200"/>
<path d="M27.2797 40.9982C26.3325 42.4823 25.2716 43.8551 24.097 45.1908C23.5666 45.7844 21.6722 47.6767 21.9374 48.6413C22.1648 49.4205 23.9076 49.5689 24.5517 49.7544C26.7492 50.4222 28.9088 51.1643 31.0685 51.8692C32.7734 52.4258 34.4026 53.0936 36.1076 53.6502C36.6759 53.8357 37.32 54.1325 37.8505 53.7244C38.684 53.0936 38.5703 51.1643 38.684 50.3109C38.8734 48.6784 39.2523 47.0459 39.0629 45.3763C39.025 45.0053 38.0399 45.3021 38.002 45.5989C38.002 45.636 38.002 45.6731 38.002 45.7102C37.9262 46.1184 39.025 45.9329 39.0629 45.5618C39.0629 45.5247 39.0629 45.4876 39.0629 45.4505C38.7219 45.5247 38.343 45.5989 38.002 45.6731C38.1915 47.1943 37.8883 48.6413 37.661 50.1254C37.5852 50.7562 37.5474 51.424 37.4337 52.0548C37.4337 52.0548 36.9033 53.6873 37.5095 53.242C37.2064 53.4646 34.4405 52.129 33.8722 51.9806C32.3567 51.4982 30.8411 51.0159 29.3635 50.5336C28.0374 50.0883 26.7113 49.6802 25.3852 49.235C24.9685 49.0866 24.097 48.9381 23.7182 48.6784C23.3772 48.7155 23.2256 48.5671 23.3014 48.2332C23.1877 47.9364 23.2256 47.6767 23.4908 47.4541C23.9455 46.2668 25.0821 45.3021 25.8778 44.3745C26.7492 43.3357 27.5449 42.2226 28.2647 41.0724C28.5679 40.5901 27.4691 40.7014 27.2797 40.9982Z" fill="#11F200"/>
<path d="M27.3933 52.7226C24.4001 51.5353 20.7629 55.6166 19.702 57.9169C19.5883 58.1396 20.0809 58.1396 20.1567 58.1396C20.6492 58.1025 20.8008 57.9911 21.2554 57.8427C21.1039 57.8798 23.1877 57.212 23.3393 57.3233C23.9455 57.8056 22.5436 61.1449 22.43 61.8127C22.2026 63.1484 22.43 64.3357 22.6194 65.6714C22.7331 66.3763 22.7331 68.5282 23.3393 69.0477C24.3623 69.9381 25.7262 67.7862 26.143 67.341C27.1281 66.265 28.2269 65.1519 29.0983 63.9646C29.8939 62.9258 30.3107 61.7756 30.8411 60.5883C30.5001 60.6996 30.197 60.8109 29.856 60.9222C31.2958 61.4417 30.7654 63.5565 31.902 64.1131C32.1293 64.2244 32.584 64.1131 32.7734 63.9275C33.607 63.1113 33.6828 61.4417 33.5691 60.3657C33.3418 58.2138 32.3188 55.8392 30.6138 54.3922C29.8182 53.7244 28.2647 52.3887 27.166 52.6484C25.9157 52.9452 25.3095 55.0601 25.1958 56.0989C25.1579 56.3215 25.4989 56.3586 25.6505 56.3215C26.5977 56.1731 27.3554 55.765 28.189 55.2827C27.8859 55.2456 27.6206 55.2085 27.3175 55.2085C27.2796 57.1749 25.1579 58.7332 24.9306 60.7738C24.9306 60.8851 24.9685 60.9222 25.0442 60.9593C27.4691 62.5919 31.8641 55.3198 29.3256 53.7615C29.0225 53.576 28.0374 54.0212 28.4542 54.2809C30.3865 55.4682 26.7492 60.848 26.0293 60.3286C25.6505 60.0689 28.3784 55.9505 28.3784 55.0972C28.3784 54.689 27.6964 54.9116 27.507 55.023C27.3554 55.0972 26.143 55.7279 25.7641 55.8021C25.9157 55.8763 26.0672 55.9505 26.2188 56.0247C26.2946 55.0972 26.7113 53.6131 27.5828 53.1307C27.3175 53.1678 27.0902 53.2049 26.825 53.242C28.9846 54.2067 30.8032 55.6537 31.6747 57.8798C32.243 59.3268 33.2281 62.4805 31.8641 63.8162C32.1672 63.742 32.4324 63.7049 32.7355 63.6307C32.3188 63.4081 32.0536 62.1095 31.8641 61.7014C31.561 61.1078 31.3716 60.6625 30.7275 60.4399C30.4244 60.3286 29.8939 60.4399 29.7424 60.7738C28.9467 62.4434 28.2647 63.6678 27.0523 65.0777C26.0293 66.265 25.0442 68.0088 23.7182 68.8622C23.9834 68.8251 24.2107 68.788 24.4759 68.7509C23.9455 68.5282 23.8318 66.7844 23.756 66.3392C23.5287 65.0777 23.2256 63.6307 23.3393 62.3321C23.4908 60.6254 24.8169 58.6219 24.4759 56.9523C24.4759 56.8781 24.3244 56.841 24.2486 56.8039C22.8846 56.3957 21.5206 57.4717 20.2324 57.583C20.384 57.6572 20.5355 57.7314 20.6871 57.8056C21.407 56.2844 24.4001 52.4629 26.4461 53.242C26.8629 53.3904 27.848 52.9081 27.3933 52.7226Z" fill="#11F200"/>
<path d="M39.6312 15.917C38.9492 16.5477 39.1007 17.8463 39.1007 18.6626C39.1007 19.6643 38.8355 21.3339 39.4417 22.2244C39.5554 22.4099 40.2753 22.1873 40.1237 21.9647C39.6312 21.2597 39.8585 19.924 39.8585 19.1449C39.8585 18.4028 39.5933 16.6219 40.2374 16.0654C40.5026 15.7315 39.8206 15.7315 39.6312 15.917Z" fill="#11F200"/>
<path d="M41.7908 15.9912C41.7908 15.9541 41.7908 15.917 41.8287 15.8799C41.9044 15.6201 41.1846 15.7315 41.1088 15.9541C40.5026 18.3657 40.0479 21.0371 40.5026 23.523C40.5405 23.7456 41.033 23.5601 41.1467 23.4859C41.3361 23.3375 41.3361 23.3004 41.4119 23.0777C41.4877 22.818 40.7678 22.9293 40.692 23.1519C40.6541 23.2262 40.6162 23.3004 40.5783 23.3746C40.8057 23.3746 40.9951 23.3375 41.2224 23.3375C40.7678 20.8887 41.2224 18.2544 41.8287 15.8799C41.6013 15.917 41.3361 15.9541 41.1088 15.9541C41.1088 15.9912 41.1088 16.0283 41.0709 16.0654C40.9951 16.3251 41.715 16.2138 41.7908 15.9912Z" fill="#11F200"/>
<path d="M42.8139 15.5831C41.9424 17.9576 41.2604 21 41.6393 23.523C41.6772 23.7827 42.3213 23.5972 42.3592 23.3746C42.3592 23.3375 42.3592 23.3004 42.3592 23.2633C42.3971 23.0036 41.6772 23.1149 41.6393 23.3375C41.6393 23.3746 41.6393 23.4117 41.6393 23.4488C41.8666 23.4117 42.1319 23.3746 42.3592 23.3004C41.9803 20.8145 42.6623 17.8092 43.5337 15.4718C43.6095 15.2862 42.8896 15.3604 42.8139 15.5831Z" fill="#11F200"/>
<path d="M44.1778 15.6202C43.8368 17.364 43.4958 19.1449 43.3064 20.9258C43.2306 21.8163 42.7759 23.2262 43.0032 24.0795C43.079 24.3393 43.7989 24.1166 43.7231 23.894C43.5716 23.4117 43.8747 22.6325 43.9126 22.1131C43.9883 21.4824 44.0262 20.8887 44.102 20.258C44.2914 18.6626 44.5945 17.1043 44.8976 15.5089C44.9355 15.2491 44.2157 15.3976 44.1778 15.6202Z" fill="#11F200"/>
<path d="M44.9354 16.6961C44.6702 17.8834 44.4808 19.0707 44.3292 20.2579C44.1777 21.4823 44.2914 22.7067 44.064 23.9311C44.0261 24.1908 44.7081 24.0795 44.7839 23.8569C44.7839 23.8198 44.7839 23.7827 44.8218 23.7456C44.8976 23.4859 44.1777 23.5972 44.1019 23.8198C44.1019 23.8569 44.1019 23.894 44.064 23.9311C44.2914 23.894 44.5566 23.8569 44.7839 23.8569C45.0112 22.6325 44.8976 21.4081 45.0491 20.1837C45.2007 18.9965 45.3901 17.8092 45.6553 16.6219C45.7311 16.3251 45.0112 16.4364 44.9354 16.6961Z" fill="#11F200"/>
<path d="M34.1373 30.053C34.1373 30.0159 34.1373 29.9788 34.1752 29.9417C33.9479 29.9788 33.6827 30.0159 33.4553 30.0159C33.1522 31.3516 33.4932 32.6873 33.3795 34.0601C33.3795 34.1343 33.3795 34.1714 33.4553 34.1714C33.4932 34.1714 33.5311 34.2085 33.569 34.2085C33.7963 34.3198 34.4404 33.9859 34.1373 33.8746C34.0615 33.8375 34.0615 32.3163 34.0615 32.1679C34.0236 31.4258 33.9858 30.6838 34.1752 29.9046C34.251 29.6449 33.5311 29.7562 33.4553 29.9788C33.4553 30.0159 33.4553 30.053 33.4174 30.0901C33.3417 30.3869 34.0615 30.2756 34.1373 30.053Z" fill="#11F200"/>
<path d="M35.1604 29.2367C34.5163 29.9046 34.5542 30.8322 34.4784 31.6855C34.3269 33.0583 33.9859 34.394 34.289 35.7668C34.3269 36.0265 34.971 35.841 35.0089 35.6184C35.0089 35.5813 35.0089 35.5442 35.0089 35.5442C35.0468 35.2845 34.3269 35.3958 34.289 35.6184C34.289 35.6555 34.289 35.6926 34.289 35.6926C34.5163 35.6555 34.7816 35.6184 35.0089 35.5442C34.7437 34.3198 34.971 33.2067 35.1604 31.9823C35.2741 31.1661 35.1225 29.9417 35.7666 29.311C36.0319 29.0512 35.3499 29.0883 35.1604 29.2367Z" fill="#11F200"/>
<path d="M35.9182 29.1626C35.9182 30.4611 35.8803 31.7597 35.9561 33.0583C36.0318 34.2827 35.8045 35.5813 36.1076 36.8057C36.1834 37.0654 36.7138 36.8428 36.7896 36.7315C36.7896 36.6944 36.8275 36.6573 36.8275 36.6573C37.0169 36.3604 36.297 36.4346 36.1455 36.6573C36.1455 36.6944 36.1076 36.7315 36.1076 36.7315C36.3349 36.6944 36.5623 36.6573 36.7896 36.6573C36.4865 35.5071 36.7138 34.1343 36.638 32.9099C36.5623 31.6113 36.6001 30.3127 36.6001 29.0141C36.638 28.7544 35.9182 28.8657 35.9182 29.1626Z" fill="#11F200"/>
<path d="M37.5474 29.1997C37.0549 31.7597 37.0928 34.8392 37.5096 37.3993C37.5474 37.659 38.1915 37.4364 38.2294 37.2509C38.2294 37.1767 38.2673 37.1025 38.2673 37.0283C38.3052 36.7686 37.5853 36.8799 37.5474 37.1025C37.5474 37.1767 37.5096 37.2509 37.5096 37.3251C37.7369 37.288 38.0021 37.2509 38.2294 37.1767C37.8127 34.6166 37.8127 31.6113 38.2673 29.0512C38.3052 28.8286 37.5853 28.9399 37.5474 29.1997Z" fill="#11F200"/>
<path d="M39.1386 28.8286C39.1008 31.5742 38.6461 34.2456 38.8355 36.9912C38.8355 37.0283 38.8734 37.0654 38.9113 37.0654C38.9492 37.0654 38.9871 37.1025 39.025 37.1025C39.2523 37.2138 39.8964 36.917 39.5933 36.7686C39.0629 36.5088 39.5175 33.2438 39.5554 32.8357C39.6691 31.4629 39.8585 30.0901 39.8585 28.7173C39.8585 28.4576 39.1386 28.606 39.1386 28.8286Z" fill="#11F200"/>
<path d="M40.5025 30.0159C40.3889 32.0194 40.5404 34.1343 40.1994 36.1007C40.1616 36.3604 40.8814 36.2491 40.9193 36.0265C41.2603 34.0601 41.1088 31.9452 41.2224 29.9417C41.2224 29.6449 40.5025 29.7933 40.5025 30.0159Z" fill="#11F200"/>
<path d="M44.1398 5.56538C45.2765 6.75266 46.4889 7.79152 48.0044 8.49647C49.1411 8.9788 50.4293 9.09011 51.4902 9.68375C51.6417 9.79506 51.9448 9.68375 52.0585 9.57244C52.0964 9.53534 52.1721 9.49824 52.21 9.46114C52.5131 9.20142 51.8312 9.20142 51.6417 9.34983C51.6038 9.38693 51.528 9.42403 51.4902 9.46114C51.6796 9.42403 51.869 9.38693 52.0585 9.34983C51.0734 8.79329 49.861 8.71909 48.8001 8.27386C47.2467 7.60601 45.9964 6.53004 44.8218 5.34276C44.6324 5.12015 43.9504 5.37986 44.1398 5.56538Z" fill="#11F200"/>
<path d="M47.5498 3.71025C46.9057 3.93287 46.6405 4.30389 46.2238 4.86043C46.4511 4.86043 46.6784 4.86043 46.9057 4.86043C47.2089 4.30389 47.5877 3.78446 47.9666 3.30213C48.1939 3.04241 47.4741 3.11661 47.3604 3.22792C46.7163 3.82156 46.0722 4.341 45.5039 4.97174C45.7312 4.97174 45.9585 4.97174 46.1859 4.97174C46.489 4.56361 46.8679 4.22969 47.3225 3.96997C47.1331 3.93287 46.9436 3.93287 46.7542 3.89577C46.7542 4.26679 46.6405 4.56361 46.4132 4.86043C46.2238 5.19435 46.9436 5.00884 47.0194 4.93464C47.5498 4.56361 47.853 3.96997 48.3455 3.59895C48.1182 3.59895 47.9287 3.59895 47.7014 3.59895C47.4741 4.26679 47.0573 4.93464 46.6784 5.52828C46.489 5.8251 47.2089 5.67669 47.3604 5.52828C48.1182 4.67492 48.5728 3.67315 49.3306 2.8569C49.1033 2.8569 48.8759 2.894 48.6486 2.894C48.6486 3.67315 48.1939 4.22969 47.8908 4.93464C47.5877 5.60248 47.4362 6.34453 46.9436 6.90107C47.171 6.90107 47.3983 6.90107 47.6256 6.90107C48.1182 6.01061 48.6486 5.12015 49.1033 4.22969C49.4821 3.56184 49.8231 2.44877 50.3157 1.89223C50.0884 1.89223 49.861 1.92934 49.6337 1.92934C49.4064 3.82156 48.2318 5.41697 47.6256 7.19789C47.6256 7.23499 47.6635 7.3092 47.7014 7.3092C49.2927 7.93994 50.3915 3.07951 50.9219 2.44877C50.6946 2.44877 50.4672 2.48587 50.2399 2.48587C50.2399 4.19259 48.7244 5.60248 48.5349 7.3092C48.4971 7.60602 49.1412 7.4205 49.2169 7.27209C50.1262 5.8993 50.3536 4.22969 51.1871 2.81979C50.9598 2.81979 50.7325 2.8569 50.5051 2.8569C50.2399 3.85866 49.8989 4.82333 49.6337 5.78799C49.861 5.75089 50.1262 5.71379 50.3536 5.71379C50.5051 5.04594 51.7176 2.44877 50.1262 2.67138C49.52 2.74559 49.0654 3.37633 48.6865 3.78446C47.8908 4.63782 47.3983 5.63958 46.6784 6.53004C46.9057 6.53004 47.1331 6.53004 47.3604 6.53004C47.7772 5.8993 48.2697 5.08305 47.7393 4.3781C47.4741 4.04418 47.0194 3.82156 46.6026 4.08128C44.8977 5.12015 48.6486 7.60601 49.2548 8.08835C49.4443 7.97704 49.6716 7.86573 49.861 7.79153C48.7244 7.04948 47.6256 5.63958 46.2238 5.34276C46.0722 5.30566 45.6554 5.37987 45.6554 5.56538C45.5418 6.49294 47.3225 7.4576 48.0424 6.67845C48.838 5.8251 46.6784 5.00884 46.0343 4.97174C45.8828 4.97174 45.6554 5.04594 45.5418 5.15725C44.7082 6.38163 46.8679 7.04948 47.7772 7.16078C47.9287 7.16078 48.3076 7.12368 48.3455 6.93817C48.5728 5.45407 43.761 5.34276 46.6784 7.86573C47.2089 8.31096 48.2697 8.97881 48.838 8.23676C49.4821 7.4205 47.853 5.15725 47.0573 4.93464C46.0722 4.63782 45.9207 5.45407 46.2238 6.19612C46.6405 7.23499 48.1939 8.9046 49.52 8.64488C51.566 8.23676 49.8989 4.63782 48.9517 6.34453C48.5349 7.08658 48.9896 8.49647 50.0126 8.23676C51.3766 7.86573 51.2629 5.45407 50.7703 4.56361C50.6946 4.4152 50.3915 4.4523 50.2778 4.52651C49.3306 4.93464 49.2548 7.49471 50.2778 7.82863C50.4672 7.90283 50.7703 7.82863 50.884 7.68022C51.566 6.71556 51.7933 5.12015 51.566 4.00707C51.5281 3.78446 50.8461 3.93287 50.8461 4.15548C50.8082 4.89753 50.8461 5.60248 50.9219 6.34453C50.9598 7.01237 50.8082 7.82863 51.1113 8.42227C51.225 8.64488 51.6418 8.49647 51.7554 8.38517C52.1343 8.05124 52.1722 7.68022 51.7554 7.3463C51.6039 7.19789 51.3008 7.3092 51.1492 7.4205C50.8082 7.68022 50.3915 8.12545 49.9368 8.05124C49.7853 8.16255 49.6337 8.31096 49.4821 8.42227C50.202 8.53358 50.8461 8.38517 51.566 8.45937C51.7554 8.45937 52.3238 8.16255 51.907 8.05124C51.1113 7.86573 50.4294 7.3463 49.6337 7.27209C49.52 7.27209 48.9138 7.3463 49.0654 7.60601C49.5579 8.23676 51.6418 9.12722 52.3617 8.42227C52.3995 8.38517 52.4753 8.31096 52.3995 8.23676C51.8691 7.60602 50.6946 7.01237 49.9747 7.75442C49.1412 8.60778 50.4294 8.97881 51.1113 9.09011C51.3008 9.12722 51.566 9.05301 51.6797 8.9046C51.907 8.57068 51.8312 8.08835 51.907 7.64312C51.9449 7.4205 51.5281 7.49471 51.4144 7.53181C50.8461 7.79153 49.9368 8.27386 49.3306 7.75442C48.8002 7.27209 49.7095 5.60248 49.861 5.30566C50.3157 4.3781 50.9219 3.52474 50.7325 2.44877C50.6946 2.18905 50.1262 2.44877 50.0505 2.52298C49.4064 3.26502 49.3685 4.19259 49.1412 5.12015C49.0654 5.37987 49.7474 5.23146 49.8231 5.08305C50.5051 3.82156 51.225 2.44877 51.4144 1.03888C51.4523 0.816261 51.0356 0.890466 50.9219 0.927569C49.5958 1.447 49.0654 3.19082 47.9666 4.00707C48.1561 4.04418 48.3834 4.04418 48.5728 4.08128C48.9138 3.45054 49.4821 2.78269 50.0126 2.26326C50.3536 1.92934 50.6946 1.74382 50.884 1.3357C51.0356 1.03888 50.4294 1.15018 50.3157 1.22439C49.4064 1.81803 48.6107 2.63428 47.6256 3.11661C47.8151 3.15372 48.0045 3.19082 48.1939 3.22792C48.4592 2.70849 49.0654 2.26326 49.52 1.89223C49.2927 1.89223 49.1033 1.89223 48.8759 1.89223C48.6865 2.37457 48.1939 2.74559 47.7772 3.07951C47.4741 3.33923 48.1939 3.30213 48.3455 3.19082C48.8002 2.8569 49.1033 2.44877 49.4821 2.11485C50.0505 1.63252 50.4294 1.15018 50.3536 2.26326C50.3157 3.04241 50.0126 3.74736 50.0126 4.52651C50.0126 4.74912 50.6946 4.60071 50.7325 4.3781C50.884 3.59895 51.1113 2.8569 51.3008 2.07775C51.0735 2.11485 50.8082 2.15195 50.5809 2.15195C50.4672 3.33923 50.543 4.67492 50.7325 5.8622C50.7703 6.12192 51.4144 5.8993 51.4523 5.71379C51.6039 4.97174 52.0964 3.19082 51.4523 2.52298C51.3008 2.33746 50.8461 2.52298 50.7703 2.70849C50.2778 3.89577 50.4294 5.30566 50.2399 6.60425C50.202 6.90107 50.884 6.75266 50.9598 6.53004C51.3008 5.34276 51.8312 3.82156 51.0356 2.70849C50.9219 2.56008 50.5809 2.67139 50.4672 2.74559C49.9747 3.04241 50.0126 3.33923 49.861 3.89577C49.4443 5.08305 49.1412 6.27033 48.838 7.53181C48.7623 7.79153 49.4821 7.68022 49.5579 7.4576C49.7853 6.56715 49.9368 5.67669 50.202 4.82333C50.3157 4.4152 50.543 3.22792 50.9219 2.9682C50.7325 2.9682 50.543 3.00531 50.3536 3.00531C51.1492 4.04418 50.543 5.52828 50.2399 6.64135C50.4672 6.60425 50.7325 6.56715 50.9598 6.56715C51.1492 5.30566 50.9977 3.89577 51.4902 2.67138C51.2629 2.74559 51.0356 2.78269 50.8082 2.8569C51.3387 3.41343 50.884 5.26856 50.7325 5.8622C50.9598 5.8251 51.225 5.78799 51.4523 5.71379C51.3008 4.67492 51.1871 3.15372 51.3008 2.11485C51.3387 1.81803 50.6188 1.96644 50.5809 2.18905C50.3915 2.9682 50.202 3.71025 50.0126 4.48941C50.2399 4.4523 50.5051 4.4152 50.7325 4.341C50.7325 3.74736 51.6418 1.29859 50.6946 0.964671C49.6716 0.593646 48.3076 2.70849 47.7393 3.11661C47.9287 3.15372 48.1182 3.19082 48.3076 3.22792C48.7623 2.81979 49.2927 2.41167 49.52 1.85513C49.6337 1.59541 48.9517 1.78093 48.8759 1.85513C48.3834 2.22616 47.7393 2.70849 47.4741 3.26502C47.3225 3.56184 47.9287 3.45054 48.0424 3.37633C49.0275 2.8569 49.8231 2.07775 50.7325 1.48411C50.543 1.447 50.3536 1.4099 50.1641 1.3728C49.8989 1.89223 49.3685 2.15195 48.9896 2.56008C48.5728 3.00531 48.1561 3.59895 47.853 4.11838C47.6635 4.4523 48.3834 4.26679 48.4592 4.19259C49.4064 3.48764 50.0126 1.70672 51.1113 1.29859C50.9598 1.26149 50.7703 1.22439 50.6188 1.18729C50.4294 2.59718 49.7474 3.89577 49.0654 5.15725C49.2927 5.15725 49.52 5.12015 49.7474 5.12015C49.9368 4.26679 50.0126 3.33923 50.6188 2.63428C50.3915 2.67139 50.1641 2.70849 49.9368 2.70849C50.202 4.22969 47.3983 6.78976 48.6486 8.23676C49.4443 9.16432 50.7703 8.23676 51.566 7.86573C51.4144 7.82863 51.225 7.79153 51.0735 7.75442C50.9977 7.97704 50.9219 8.16255 50.8082 8.38517C50.7703 8.42227 50.7703 8.49647 50.8082 8.53358C50.8461 8.64488 50.8461 8.79329 50.884 8.9046C51.0735 8.8304 51.2629 8.79329 51.4523 8.71909C50.9219 8.64488 51.566 8.42227 51.4902 8.23676C51.4902 8.19966 50.9977 8.05124 50.7703 7.97704C50.3915 7.82863 49.861 7.64312 49.6337 7.3092C49.4443 7.4205 49.2548 7.53181 49.0654 7.64312C49.7853 7.75443 50.5809 8.27386 51.3387 8.42227C51.4523 8.27386 51.566 8.16255 51.6797 8.01414C51.0356 7.97704 50.3915 8.08835 49.7474 8.01414C49.52 7.97704 48.9138 8.34806 49.2927 8.38517C50.3536 8.53358 50.7325 8.05124 51.5281 7.49471C51.3387 7.53181 51.1113 7.53181 50.9219 7.56891C50.9598 7.79153 50.9598 8.01414 50.9977 8.23676C51.225 8.23676 51.4144 8.19965 51.6418 8.19965C51.4144 7.75443 51.5281 7.19789 51.4902 6.75266C51.4523 5.8251 51.3008 4.97174 51.3766 4.08128C51.1492 4.11838 50.884 4.15548 50.6567 4.22969C50.8461 5.23146 50.6567 6.82686 50.0126 7.71732C50.202 7.68022 50.4294 7.60601 50.6188 7.56891C50.0884 7.3834 49.7474 5.12015 50.3157 4.89753C50.1641 4.89753 49.9747 4.86043 49.8231 4.86043C50.1641 5.49117 50.2399 6.23322 50.0884 6.93817C49.9368 7.56891 49.5579 8.27386 49.3685 7.19789C49.2169 6.30743 49.4064 6.45584 49.4821 7.12368C49.4821 7.3092 49.6716 7.82863 49.52 8.01414C49.0275 8.64488 48.1182 7.82863 47.7772 7.53181C47.5877 7.3834 46.4132 5.75089 46.6026 5.67669C46.8679 5.60248 47.853 7.19789 47.8908 7.3834C48.2318 8.64488 47.0573 7.75442 46.6784 7.23499C45.7312 5.97351 47.5498 6.45584 47.4362 7.16078C47.6256 7.08658 47.8151 7.01238 48.0045 6.93817C47.9666 6.93817 45.2387 6.15902 45.9585 5.67669C45.9964 5.67669 46.5648 5.9364 46.6026 5.97351C47.3604 6.71556 45.9964 6.49294 46.1101 5.63958C45.9207 5.71379 45.7312 5.78799 45.5418 5.8622C46.8679 6.15902 47.9287 7.56891 49.0275 8.27386C49.2169 8.38517 49.861 8.12545 49.6337 7.97704C48.8759 7.3834 48.0045 6.90107 47.3604 6.15902C47.0573 5.75089 46.7542 5.23146 46.7921 5.04594C47.0573 5.12015 47.0952 5.37987 46.9057 5.75089C46.7921 6.08481 46.6026 6.41874 46.4132 6.71556C46.2238 6.97527 46.9436 6.90107 47.0952 6.71556C47.5877 6.08481 48.5728 3.85866 49.4064 3.67315C49.5579 3.37633 49.6716 3.33923 49.7853 3.63605C49.9368 3.78446 49.9747 3.93287 49.861 4.11838C49.8989 4.67492 49.52 5.45407 49.4064 5.97351C49.3306 6.23322 50.0505 6.12192 50.1262 5.8993C50.3915 4.89753 50.7325 3.96997 50.9977 2.9682C51.0735 2.70849 50.3915 2.8569 50.3157 3.00531C49.4821 4.4152 49.2548 6.08481 48.3455 7.4576C48.5728 7.4576 48.8002 7.4205 49.0275 7.4205C49.2169 5.71379 50.7325 4.341 50.7325 2.59718C50.7325 2.26326 50.1641 2.52298 50.0505 2.63428C49.52 3.26502 49.3685 4.15548 49.0275 4.89753C48.838 5.34276 48.1182 6.30743 48.0803 6.78976C48.0045 7.4205 48.3834 6.64135 48.5728 6.38163C48.8002 6.01061 48.9138 5.49117 49.1033 5.08305C49.5579 4.08128 50.0126 3.11661 50.1262 2.04064C50.1641 1.70672 49.52 1.96644 49.4443 2.07775C48.8759 2.70849 48.6486 3.67315 48.2318 4.4152C47.7393 5.30566 47.2089 6.19612 46.7542 7.08658C46.5648 7.3834 47.2846 7.27209 47.4362 7.08658C47.8908 6.53004 48.0045 5.9364 48.2697 5.34276C48.6107 4.52651 49.179 3.93287 49.179 3.00531C49.179 2.67139 48.6107 2.9311 48.4971 3.04241C47.7772 3.85866 47.2846 4.89753 46.5269 5.71379C46.7542 5.71379 46.9815 5.71379 47.2089 5.71379C47.5877 5.04594 48.0424 4.4152 48.2697 3.67315C48.3455 3.37633 47.7014 3.59895 47.6256 3.67315C47.0952 4.04418 46.83 4.63782 46.2995 5.00884C46.489 5.04594 46.7163 5.04594 46.9057 5.08305C47.1331 4.71202 47.2467 4.4523 47.2846 4.00707C47.3225 3.74736 46.83 3.89577 46.7163 3.93287C46.1101 4.22969 45.7691 4.63782 45.3523 5.12015C45.1629 5.37987 45.8828 5.30566 46.0343 5.12015C46.5648 4.52651 47.2089 4.00707 47.7772 3.45054C47.5877 3.41343 47.3604 3.41343 47.171 3.37633C46.7542 3.85866 46.4132 4.4152 46.1101 4.93464C45.9207 5.23146 46.6405 5.12015 46.7921 4.93464C47.0194 4.56361 47.3225 4.26679 47.7393 4.04418C48.3076 3.82156 47.8908 3.59895 47.5498 3.71025Z" fill="#11F200"/>
<path d="M16.1405 51.1272C12.5411 53.3163 10.6846 57.7686 8.82808 61.2933C6.63057 65.4488 4.54671 69.7156 2.61442 74.0194C2.04609 75.3551 -1.70484 83.8516 0.947335 84.0371C1.17466 84.0371 1.62932 83.9258 1.7051 83.6661C1.74299 83.5548 1.74299 83.4806 1.78088 83.3693C1.85665 82.9611 0.795782 83.1467 0.720006 83.5177C0.682118 83.629 0.682118 83.7032 0.64423 83.8145C0.909447 83.7032 1.13678 83.5548 1.40199 83.4435C0.151683 83.3693 3.37218 74.7244 3.78895 73.7968C5.60758 69.6784 7.61566 65.6343 9.69951 61.6643C11.4803 58.2509 13.3747 53.576 16.8604 51.4611C17.4287 51.053 16.4815 50.9046 16.1405 51.1272Z" fill="#11F200"/>
<path d="M14.9659 64.5583C12.0864 69.7527 8.48706 74.8357 6.78209 80.5124C6.66842 80.8463 7.42619 80.735 7.53985 80.6608C7.88085 80.5124 8.0324 80.4382 8.07029 80.0671C8.10817 79.659 7.04731 79.8445 7.00942 80.2156C7.04731 80.2156 7.08519 80.2156 7.16097 80.2527C7.42619 80.2898 7.65352 80.364 7.91873 80.4011C9.6237 74.7615 13.1473 69.7156 16.0268 64.5954C16.2162 64.1502 15.1554 64.2615 14.9659 64.5583Z" fill="#11F200"/>
</g>
<defs>
<clipPath id="clip0_9_597">
<rect width="61" height="84" fill="white" transform="translate(0.000244141)"/>
</clipPath>
</defs>
</svg>
