<svg width="275" height="158" viewBox="0 0 275 158" fill="none" xmlns="http://www.w3.org/2000/svg">
<g clip-path="url(#clip0_111_42)">
<path d="M17.5 98.5C34.6 101.6 51.6 104.7 68.7 107.8C68.7 108.1 68.6 108.3 68.6 108.6C56.7 107.1 44.9 105.6 33.1 104.1C28 103.4 22.9 102.1 17.8 102C13.9 101.9 9.99995 103.1 6.19995 104C4.39995 104.4 2.59995 105.3 0.799954 106C-1.10005 101.4 0.999954 99.7 3.99995 97.1C8.79995 92.9 13.3 88.1 16.5 82.6C23.4 70.9 29.4 58.6 35.8 46.6C37.4 43.7 39.5 41 42.2 38.7C36.2 58.8 25.6 76.6 15 94.6C17.4 92.7 19.7 90.6 22.2 88.9C42 75 63.7 71.2 87.2 77.3C112.8 83.9 134.9 97.2 156 112.6C170.2 123 184.3 133.6 198.7 143.7C206.8 149.4 216.2 152.7 226.1 153.4C243.7 154.6 258.2 146.2 264.5 129.3C268.3 119 270.6 107.9 272 97C275.4 69.7 272.1 42.7 267 15.8C266 10.6 264.5 5.50001 264.3 0.200012C266.9 13.3 270.3 26.4 272 39.6C273.9 54.2 275.4 69.1 274.9 83.8C274.4 97.8 272.6 112.1 268.6 125.4C260.1 153.4 235.5 164.3 208.1 153.9C194.5 148.8 183.4 139.7 171.7 131.5C154.2 119.4 136.9 107.1 118.7 96C103.6 86.8 86.7 81.3 68.8 80C54.2 79 40.9 83.5 28.4 90.6C24.7 92.7 21 94.9 17.3 97C17.4 97.4 17.4 98 17.5 98.5Z" fill="#11F200"/>
</g>
<defs>
<clipPath id="clip0_111_42">
<rect width="275" height="157.5" fill="white"/>
</clipPath>
</defs>
</svg>
