<svg width="289" height="157" viewBox="0 0 289 157" fill="none" xmlns="http://www.w3.org/2000/svg">
<path d="M13.741 88.525C16.1555 84.5351 18.6555 79.9388 21.0701 75.9489L26.1782 79.1426C23.7635 83.1325 21.349 87.1223 18.9344 91.1122L13.741 88.525ZM30.1305 64.2352C33.1506 60.3307 36.6907 57.1179 40.2309 53.9052L44.5626 58.2267C41.0224 61.4394 38.0877 64.7374 35.153 68.0355L30.1305 64.2352ZM51.4571 44.3523C55.5174 41.8313 59.6631 38.7039 63.7234 36.1829L66.6731 41.5469C62.6128 44.0678 58.5525 46.5888 55.0977 49.195L51.4571 44.3523ZM76.9444 30.0038C81.5248 28.1747 86.1052 26.3456 90.6856 24.5165L92.3388 30.3164C87.8439 31.539 83.869 33.4534 79.2887 35.2825L76.9444 30.0038ZM104.171 20.8488C108.665 19.6262 113.681 19.0954 118.696 18.5647L119.052 24.8005C114.643 25.4166 109.628 25.9473 105.133 27.1699L104.171 20.8488ZM132.964 18.1002C137.894 18.1759 142.824 18.2517 147.668 18.934L146.814 24.9993C142.575 24.4023 137.645 24.3265 132.716 24.2507L132.964 18.1002ZM160.655 27.5674L162.115 21.5874C166.268 22.791 170.421 23.9945 174.489 25.8046L175.7 25.9752L173.635 31.8699L172.509 31.0928C168.356 29.8892 164.808 28.771 160.655 27.5674ZM186.444 37.3854L189.115 31.576C193.183 33.386 197.771 35.8879 201.668 38.9111L198.391 44.6352C194.409 42.2186 190.426 39.802 186.444 37.3854ZM209.647 52.4063L213.444 47.3739C217.341 50.3971 221.323 52.8137 225.22 55.8368L221.424 60.8691C217.527 57.846 213.63 54.8229 209.647 52.4063ZM231.903 69.768L235.7 64.7356C238.471 66.9816 241.763 69.9195 244.534 72.1655L246.18 73.6344L242.383 78.6668L240.738 77.1979C237.966 74.9518 235.28 72.0993 231.903 69.768ZM254.074 87.7362L257.871 82.7038C261.768 85.727 265.059 88.6648 268.956 91.688L265.16 96.7203C261.263 93.6972 257.971 90.7593 254.074 87.7362ZM276.936 105.183L280.127 100.066C284.024 103.089 288.006 105.505 292.074 107.315L288.883 112.433C285.421 110.708 280.833 108.206 276.936 105.183ZM302.041 119.853L304.712 114.044C307.049 114.992 309.905 116.631 312.242 117.579C313.973 118.441 315.79 118.697 317.521 119.559L315.456 125.454C313.725 124.592 311.908 124.336 310.177 123.473C307.32 121.834 304.378 120.801 302.041 119.853ZM329.212 128.629L330.672 122.649C333.094 122.99 336.121 123.416 338.544 123.758C340.36 124.013 342.782 124.355 344.599 124.61L343.744 130.676C341.928 130.42 339.506 130.079 337.689 129.823C334.576 130.003 332.154 129.662 329.212 128.629ZM358.091 125.274C362.415 125.264 367.43 124.733 371.84 124.117L372.802 130.439C367.787 130.969 363.378 131.585 358.448 131.51L358.091 125.274ZM385.759 121.748C390.254 120.525 394.749 119.303 399.244 118.08L401.503 123.965C396.923 125.795 392.428 127.017 387.327 128.154L385.759 121.748ZM411.689 113.029C416.355 110.593 420.33 108.679 424.39 106.158L427.34 111.522C423.279 114.043 419.219 116.564 414.639 118.393L411.689 113.029ZM435.36 98.4246C438.815 95.8184 442.355 92.6056 445.895 89.3929L450.227 93.7144C446.686 96.9271 443.146 100.14 439.001 103.267L435.36 98.4246Z" fill="#FAFF01"/>
<path d="M48.8466 84.81L47.1934 79.0101L18.1508 87.9093L11.181 58.4737L4.78406 60.047L13.9271 95.9743L48.8466 84.81Z" fill="#FAFF01"/>
</svg>
