<svg width="171" height="459" viewBox="0 0 171 459" fill="none" xmlns="http://www.w3.org/2000/svg">
<path d="M-128.306 13.9705C-125.412 16.9439 -122.517 19.9173 -120.344 22.7907L-124.139 26.3058C-127.033 23.3324 -129.206 20.459 -132.1 17.4856L-128.306 13.9705ZM-112.072 32.0212C-109.899 34.8946 -108.036 37.3575 -105.863 40.2309L-104.621 41.8727L-108.726 44.9774L-109.968 43.3355C-111.83 40.8726 -114.004 37.9992 -115.866 35.5363L-112.072 32.0212ZM-101.896 54.008L-97.4803 51.3138C-94.9966 54.5976 -92.9234 58.192 -91.1606 61.3758L-95.5759 64.0699C-97.3387 60.8861 -99.8223 57.6022 -101.896 54.008ZM-89.6667 74.4423L-85.2514 71.7482C-83.1782 75.3425 -81.4154 78.5263 -79.7527 82.4311L-84.4784 84.7147C-85.8307 81.2204 -87.5934 78.0366 -89.6667 74.4423ZM-78.6692 95.8081L-73.9435 93.5245C-72.2807 97.4292 -70.9284 100.923 -69.2657 104.828L-74.3019 106.701C-75.2437 102.897 -76.9064 98.9919 -78.6692 95.8081ZM-69.9346 117.595L-64.8984 115.722C-63.5461 119.216 -62.2938 123.431 -60.9415 126.925L-65.9777 128.799C-66.9195 124.994 -68.5823 121.089 -69.9346 117.595ZM-62.7418 139.902L-57.8057 138.75C-56.8638 142.555 -55.922 146.36 -54.6698 150.575L-59.606 151.727C-60.5478 147.922 -61.4896 144.118 -62.7418 139.902ZM-57.5015 163.041L-52.2548 162.3C-51.7235 166.415 -50.7817 170.22 -50.2504 174.335L-55.497 175.077C-56.0284 170.961 -56.9702 167.157 -57.5015 163.041ZM-54.524 186.601L-49.2774 185.859C-48.746 189.975 -48.5252 193.679 -48.4043 198.105L-53.5509 198.126C-53.7718 194.421 -53.9927 190.716 -54.524 186.601ZM-53.3989 210.271L-48.2522 210.251C-48.4419 214.266 -48.221 217.971 -48.1002 222.396L-53.2468 222.417C-53.0572 218.402 -52.8675 214.387 -53.3989 210.271ZM-53.4052 234.152L-48.2585 234.131L-48.3585 234.852C-48.1377 238.557 -48.6378 242.162 -48.4169 245.867L-53.5635 245.887C-53.7844 242.183 -53.2843 238.578 -53.5052 234.873L-53.4052 234.152ZM-53.4115 258.033L-48.2648 258.012C-48.4545 262.027 -48.2336 265.732 -47.7023 269.847L-52.8489 269.868C-53.4802 266.474 -53.6011 262.048 -53.4115 258.033ZM-52.3863 282.424L-47.1397 281.682C-46.6084 285.798 -46.3875 289.502 -45.4457 293.307L-50.6924 294.049C-51.3237 290.655 -51.855 286.539 -52.3863 282.424ZM-48.6879 306.084L-43.7517 304.932C-42.8099 308.737 -41.8681 312.541 -40.5158 316.036L-45.552 317.909C-46.4938 314.104 -47.4356 310.299 -48.6879 306.084ZM-40.1533 329.313L-35.4276 327.029C-33.6648 330.213 -32.0021 334.118 -29.8288 336.991L-34.2441 339.685C-36.7278 336.401 -38.801 332.807 -40.1533 329.313ZM-23.0986 346.742C-20.6149 350.026 -18.0312 352.589 -15.5475 355.873L-19.3418 359.388C-22.236 356.415 -24.7197 353.131 -27.2034 349.847L-23.0986 346.742ZM-7.48586 363.972C-4.49166 366.225 -1.187 368.887 1.8072 371.14L-1.36621 375.476C-4.36041 373.224 -7.66507 370.561 -10.9697 367.898L-7.48586 363.972ZM11.6108 377.276C15.0155 379.218 18.4201 381.16 21.9248 382.381L19.7828 387.228C15.9677 385.596 12.563 383.654 9.15831 381.712L11.6108 377.276ZM33.0599 386.865C36.5646 388.086 40.4798 388.997 44.3949 389.907L43.2843 395.265C39.3692 394.354 35.454 393.443 31.2283 392.122L33.0599 386.865ZM55.93 391.508C59.9452 391.697 63.5499 392.197 67.6651 391.666L67.686 396.813C63.6708 396.623 59.2451 396.744 55.6404 396.244L55.93 391.508ZM79.1898 390.693C82.8946 390.472 86.6993 389.53 90.5041 388.589L91.6563 393.525C88.162 394.877 84.0468 395.408 79.9316 395.94L79.1898 390.693ZM101.918 385.763C105.413 384.411 109.317 382.748 112.812 381.396L115.095 386.122C111.191 387.784 107.696 389.137 103.792 390.799L101.918 385.763ZM150.376 354.275L154.301 357.759C151.328 360.653 148.665 363.958 145.381 366.442L141.866 362.647C145.15 360.163 148.123 357.269 150.376 354.275ZM123.495 375.897C126.678 374.134 130.273 372.061 133.146 369.888L136.251 373.993C132.967 376.476 129.373 378.55 125.778 380.623L123.495 375.897Z" fill="white"/>
<path d="M124.843 352.938L125.174 358.495L150.697 357.26L150.08 382.893L155.226 382.872L156.233 351.782L124.843 352.938Z" fill="white"/>
</svg>
