<svg width="60" height="35" viewBox="0 0 60 35" fill="none" xmlns="http://www.w3.org/2000/svg">
<path d="M59.5595 0.876745C59.2583 0.839878 58.9816 0.836302 58.6797 0.8324C58.3778 0.828499 58.1017 0.791957 57.8005 0.75509C57.1478 0.680706 56.5209 0.573682 55.8681 0.499298C54.6381 0.351506 53.3829 0.203388 52.1509 0.154492C51.0202 0.0739308 49.8636 0.0260099 48.7316 0.0113793C48.4297 0.00747784 48.1278 0.00357636 47.8511 0C46.7184 0.0183348 45.5863 0.0037042 44.4536 0.022039C41.8101 0.086797 39.1415 0.15123 36.4967 0.281919C33.9022 0.413257 31.3077 0.544596 28.7377 0.709226C27.4779 0.791866 26.1929 0.87418 24.9331 0.95682C23.5461 1.10376 22.1605 1.18478 20.7993 1.29908C17.9506 1.55903 15.1277 1.78634 12.279 2.04629C9.8083 2.27815 7.36075 2.60923 4.91121 3.03921C3.34482 3.34871 1.7526 3.69084 0.185547 4.0333C1.96835 4.22121 3.7783 4.31055 5.58892 4.36693C6.77129 4.38221 7.95433 4.36452 9.11221 4.34651C9.86758 4.3233 10.6236 4.26713 11.4048 4.21127C11.8835 4.18449 12.3376 4.12441 12.7918 4.06433C14.0278 3.91543 15.2883 3.79983 16.5243 3.65093C17.9616 3.50464 19.3744 3.32505 20.8116 3.17876C22.2741 3.03279 23.7617 2.88714 25.2241 2.74117C26.5349 2.62622 27.8709 2.51159 29.2069 2.39696C30.4925 2.28168 31.8027 2.19969 33.0877 2.11738C34.3978 2.03539 35.6828 1.95307 36.993 1.87108C38.3283 1.78942 39.6371 1.77336 40.9718 1.72466C43.3895 1.62401 45.8052 1.62226 48.2461 1.62083C49.6045 1.63838 50.9392 1.58969 52.299 1.54131C53.6336 1.49261 54.9683 1.44391 56.2784 1.36192C56.8074 1.33579 57.3615 1.30997 57.8911 1.25087C58.1434 1.22116 58.4208 1.19177 58.6737 1.12909C58.9014 1.06608 59.1298 0.970114 59.3569 0.940075C59.433 0.908085 59.484 0.875769 59.5595 0.876745Z" fill="#0ED100"/>
<path d="M59.5595 16.3399C59.2583 16.303 58.9816 16.2994 58.6797 16.2955C58.3778 16.2916 58.1017 16.2551 57.8005 16.2182C57.1478 16.1438 56.5209 16.0368 55.8681 15.9624C54.6381 15.8146 53.3829 15.6665 52.1509 15.6176C51.0202 15.5371 49.8636 15.4891 48.7316 15.4745C48.4297 15.4706 48.1278 15.4667 47.8511 15.4631C46.7184 15.4815 45.5863 15.4668 44.4536 15.4852C41.8101 15.5499 39.1415 15.6144 36.4967 15.7451C33.9022 15.8764 31.3077 16.0077 28.7377 16.1724C27.4779 16.255 26.1929 16.3373 24.9331 16.42C23.5461 16.5669 22.1605 16.6479 20.7993 16.7622C17.9506 17.0222 15.1277 17.2495 12.279 17.5094C9.8083 17.7413 7.36075 18.0724 4.91121 18.5023C3.34482 18.8118 1.7526 19.154 0.185547 19.4964C1.96835 19.6844 3.7783 19.7737 5.58892 19.8301C6.77129 19.8453 7.95433 19.8277 9.11221 19.8097C9.86758 19.7864 10.6236 19.7303 11.4048 19.6744C11.8835 19.6476 12.3376 19.5875 12.7918 19.5275C14.0278 19.3786 15.2883 19.263 16.5243 19.1141C17.9616 18.9678 19.3744 18.7882 20.8116 18.6419C22.2741 18.4959 23.7617 18.3503 25.2241 18.2043C26.5349 18.0894 27.8709 17.9747 29.2069 17.8601C30.4925 17.7448 31.8027 17.6628 33.0877 17.5805C34.3978 17.4985 35.6828 17.4162 36.993 17.3342C38.3283 17.2526 39.6371 17.2365 40.9718 17.1878C43.3895 17.0871 45.8052 17.0854 48.2461 17.084C49.6045 17.1015 50.9392 17.0528 52.299 17.0045C53.6336 16.9558 54.9683 16.9071 56.2784 16.8251C56.8074 16.7989 57.3615 16.7731 57.8911 16.714C58.1434 16.6843 58.4208 16.6549 58.6737 16.5922C58.9014 16.5292 59.1298 16.4333 59.3569 16.4032C59.433 16.3712 59.484 16.3389 59.5595 16.3399Z" fill="#0ED100"/>
<path d="M59.5595 30.9792C59.2583 30.9423 58.9816 30.9388 58.6797 30.9349C58.3778 30.931 58.1017 30.8944 57.8005 30.8575C57.1478 30.7832 56.5209 30.6761 55.8681 30.6018C54.6381 30.454 53.3829 30.3058 52.1509 30.257C51.0202 30.1764 49.8636 30.1285 48.7316 30.1138C48.4297 30.1099 48.1278 30.106 47.8511 30.1025C46.7184 30.1208 45.5863 30.1062 44.4536 30.1245C41.8101 30.1893 39.1415 30.2537 36.4967 30.3844C33.9022 30.5157 31.3077 30.6471 28.7377 30.8117C27.4779 30.8943 26.1929 30.9766 24.9331 31.0593C23.5461 31.2062 22.1605 31.2872 20.7993 31.4015C17.9506 31.6615 15.1277 31.8888 12.279 32.1487C9.8083 32.3806 7.36075 32.7117 4.91121 33.1417C3.34482 33.4512 1.7526 33.7933 0.185547 34.1358C1.96835 34.3237 3.7783 34.413 5.58892 34.4694C6.77129 34.4847 7.95433 34.467 9.11221 34.449C9.86758 34.4258 10.6236 34.3696 11.4048 34.3137C11.8835 34.2869 12.3376 34.2269 12.7918 34.1668C14.0278 34.0179 15.2883 33.9023 16.5243 33.7534C17.9616 33.6071 19.3744 33.4275 20.8116 33.2812C22.2741 33.1352 23.7617 32.9896 25.2241 32.8436C26.5349 32.7287 27.8709 32.614 29.2069 32.4994C30.4925 32.3841 31.8027 32.3021 33.0877 32.2198C34.3978 32.1378 35.6828 32.0555 36.993 31.9735C38.3283 31.8919 39.6371 31.8758 40.9718 31.8271C43.3895 31.7265 45.8052 31.7247 48.2461 31.7233C49.6045 31.7408 50.9392 31.6921 52.299 31.6438C53.6336 31.5951 54.9683 31.5464 56.2784 31.4644C56.8074 31.4382 57.3615 31.4124 57.8911 31.3533C58.1434 31.3236 58.4208 31.2942 58.6737 31.2315C58.9014 31.1685 59.1298 31.0726 59.3569 31.0425C59.433 31.0105 59.484 30.9782 59.5595 30.9792Z" fill="#0ED100"/>
</svg>
