<svg width="332" height="137" viewBox="0 0 332 137" fill="none" xmlns="http://www.w3.org/2000/svg">
<path d="M20.5471 32.3569C21.1016 32.0406 21.6192 31.5836 22.2107 31.4078C34.0776 27.5763 45.9815 23.7799 57.8484 19.9133C61.9519 18.5775 65.9815 16.9254 70.085 15.5193C80.2144 12.0744 90.5286 9.29745 101.102 7.39926C107.682 6.2041 114.299 5.00894 120.917 4.1653C127.238 3.35681 133.597 3.00529 139.956 2.44287C142.95 2.1968 145.981 1.88044 148.976 1.66953C153.523 1.35317 158.07 1.00165 162.617 0.825887C167.386 0.650128 172.155 0.544678 176.924 0.544678C185.797 0.544678 194.632 1.07195 203.431 1.95074C215.667 3.1459 227.719 5.18469 239.623 8.20774C253.116 11.6175 266.092 16.2575 278.403 22.4793C291.786 29.2636 303.911 37.6297 314.115 48.351C320.843 55.4164 326.425 63.2201 329.272 72.465C333.338 85.682 330.196 97.2821 320.251 107.265C314.558 112.96 307.645 116.967 300.214 120.201C289.309 124.946 277.811 128.005 266.055 130.184C260.14 131.274 254.188 132.258 248.237 133.137C244.392 133.699 240.51 134.016 236.665 134.402C231.859 134.824 227.054 135.246 222.248 135.562C216.85 135.914 211.416 136.3 205.981 136.371C194.706 136.547 183.431 136.652 172.155 136.617C167.386 136.617 162.654 136.195 157.885 135.984C156.961 135.949 156 135.949 155.076 135.879C150.048 135.562 145.057 135.211 140.03 134.859C137.553 134.683 135.076 134.543 132.599 134.332C129.863 134.086 127.128 133.805 124.392 133.488C120.658 133.066 116.961 132.574 113.227 132.117C109.198 131.59 105.094 131.168 101.102 130.465C91.8965 128.813 82.6913 127.161 73.5231 125.157C60.0295 122.24 46.8318 118.373 34.2255 112.854C26.3881 109.409 18.9575 105.367 12.5989 99.7076C8.53232 96.0869 5.20515 91.9742 3.13491 86.9827C0.0295486 79.4953 0.362266 72.008 3.46763 64.591C6.35118 57.7365 10.8983 51.9013 16.2218 46.5934C24.5397 38.2976 34.2994 31.7594 44.7985 26.2054C45.427 25.889 46.0185 25.5375 46.6099 25.186C46.573 25.0806 46.499 24.9399 46.4621 24.8345C45.9445 24.8696 45.427 24.8345 44.9464 24.9751C36.8872 27.3654 28.8281 29.7909 20.7689 32.2163C20.732 32.1812 20.621 32.2866 20.5471 32.3569ZM184.835 134.332C184.835 134.262 184.835 134.227 184.835 134.156C188.939 134.156 193.042 134.262 197.109 134.121C204.429 133.875 211.712 133.594 219.031 133.102C226.721 132.574 234.41 131.942 242.063 131.063C248.532 130.325 254.928 129.235 261.323 128.18C271.712 126.458 281.915 123.927 291.786 120.377C300.88 117.108 309.42 112.96 316.813 106.738C327.238 97.95 330.972 84.979 326.425 72.465C323.283 63.8529 318.033 56.5413 311.564 49.8976C302.617 40.723 292.155 33.4115 280.806 27.2248C268.902 20.7569 256.296 15.9763 243.172 12.3205C232.044 9.22714 220.695 6.94228 209.198 5.57136C205.279 5.07924 201.36 4.72773 197.405 4.41136C192.747 4.02469 188.052 3.46226 183.394 3.39196C175.815 3.28651 168.237 3.46226 160.658 3.67317C156.776 3.77863 152.895 4.095 149.05 4.41136C143.431 4.90349 137.811 5.29015 132.266 6.06349C123.468 7.32895 114.632 8.59441 105.945 10.352C93.2273 12.9181 80.5841 15.8005 67.9408 18.7181C61.1016 20.2999 54.3734 22.0927 48.1257 25.3969C36.7763 31.3727 26.1663 38.1921 17.146 47.1558C12.3031 51.9716 8.16264 57.3146 5.27909 63.4662C2.43251 69.5826 1.43435 75.945 3.20885 82.5184C5.02031 89.1972 9.16079 94.47 14.5212 98.9342C21.0647 104.383 28.6063 108.285 36.4806 111.589C49.8632 117.178 63.8373 121.009 78.1072 123.927C86.1663 125.579 94.2994 126.95 102.432 128.251C108.717 129.27 115.039 130.079 121.36 130.782C127.571 131.485 133.782 131.942 139.993 132.434C147.017 132.961 154.041 133.488 161.065 133.77C169.013 134.051 176.924 134.121 184.835 134.332ZM79.9926 13.2344C80.4732 13.3399 80.695 13.4453 80.8428 13.4102C93.3382 10.4575 105.871 7.68047 118.514 5.46591C118.662 5.43076 118.81 5.255 118.994 5.1144C115.445 4.41136 86.4251 10.4223 79.9926 13.2344Z" fill="#11F200"/>
<path d="M72.6728 62.6224C72.8207 61.4624 72.8946 60.3375 73.1534 59.2127C73.4122 58.0175 73.7818 57.8769 75.1127 57.8769C76.6284 57.8418 77.6266 58.5096 78.366 59.6697C79.1423 60.9 79.8817 62.1303 80.5841 63.3957C82.4325 66.7 84.2809 70.0042 86.1294 73.3085C86.3142 73.66 86.573 74.0115 86.9796 74.5388C87.3493 73.4843 87.719 72.6406 87.9778 71.7618C89.4565 66.9109 90.7135 62.0248 91.5268 57.0333C91.5637 56.7169 91.6377 56.3654 91.7486 56.049C92.0813 55.0296 92.451 54.7484 93.597 54.889C94.5212 54.9945 95.4824 54.9593 96.2587 55.7678C96.7763 56.2951 96.9611 56.8224 97.0351 57.4199C97.3308 59.3181 97.6266 61.2515 97.8114 63.1497C98.1441 66.8054 98.4399 70.4261 98.6987 74.0818C98.8835 76.7534 99.0314 79.46 99.2532 82.1316C99.5489 85.8225 99.8447 89.5134 100.251 93.1692C100.436 94.9619 99.9556 96.4031 98.6247 97.5983C97.8484 98.3013 97.4787 98.1959 96.8133 97.4225C95.8521 96.2977 95.7412 94.9268 95.5563 93.6262C95.1497 90.6734 94.8909 87.6855 94.6691 84.7328C94.4103 81.4637 94.1885 78.1946 93.9667 74.9255C93.8558 73.3085 93.7818 71.6564 93.4491 70.0042C93.1534 70.9182 92.8946 71.797 92.5619 72.7109C92.0443 74.0818 91.5268 75.4879 90.9353 76.8588C90.3807 78.2297 89.3826 79.3194 88.2735 80.3037C87.2754 81.1825 86.3142 81.2176 85.39 80.1982C84.5767 79.2843 83.8003 78.2649 83.1719 77.2103C81.1756 73.6952 79.2902 70.1097 77.3678 66.5594C77.183 66.2079 76.9611 65.8212 76.5175 65.4697C76.5175 66.3485 76.4806 67.2624 76.4806 68.1412C76.5915 73.2382 76.8133 78.3352 76.7763 83.4322C76.7763 87.0879 76.4436 90.7437 76.2218 94.3995C76.1478 95.6298 75.8151 96.7898 74.78 97.7038C74.0406 98.3716 73.4491 98.3013 73.1534 97.3171C72.8576 96.4031 72.6728 95.4189 72.5619 94.4698C72.3031 91.6577 72.1183 88.8455 71.9334 86.0334C71.7116 82.9401 71.4528 79.8467 71.231 76.7182C71.194 75.98 71.1571 75.2067 71.1571 74.4333C71.0462 70.8479 70.9722 67.2976 70.8613 63.7121C70.8613 63.466 70.8613 63.22 70.8983 62.9739C70.9722 62.5521 70.8244 61.9545 71.5268 61.8842C72.2292 61.8139 72.5988 62.1303 72.6728 62.6224Z" fill="white"/>
<path d="M116.887 56.3654C117.035 55.3811 117.109 54.432 117.294 53.4829C117.479 52.5338 117.811 52.3932 118.846 52.4284C120.066 52.4987 120.769 53.0611 121.139 54.1508C124.133 62.9739 127.127 71.7618 130.122 80.5497C130.455 81.4988 130.75 82.4479 131.194 83.3267C131.083 78.2649 130.898 73.1679 130.861 68.106C130.824 65.2587 130.935 62.3763 131.157 59.529C131.453 55.2405 132.599 51.0575 133.671 46.9096C133.745 46.6635 133.93 46.4526 134.299 46.2417C134.41 47.015 134.521 47.7532 134.595 48.5266C135.261 56.752 135.224 65.0127 135.261 73.2733C135.261 76.5776 135.593 79.917 135.741 83.2212C135.889 86.3849 135.926 89.5134 136.037 92.677C136.111 94.5752 135.113 95.9813 133.819 97.2116C133.19 97.774 132.525 97.7389 132.044 97.0007C131.416 95.9813 130.787 94.9619 130.418 93.837C128.754 88.9158 127.201 83.9594 125.612 79.003C123.911 73.8357 122.211 68.6333 120.51 63.466C120.436 63.2551 120.325 63.0442 120.029 62.8333C119.956 63.8175 119.845 64.8369 119.845 65.8212C119.845 74.4685 119.808 83.1158 119.845 91.7279C119.845 92.9583 119.475 93.9425 118.588 94.7861C117.885 95.454 117.368 95.4189 116.998 94.5752C116.739 93.9777 116.591 93.2746 116.554 92.6067C116.333 88.9158 116.148 85.2249 116 81.534C115.815 76.9643 115.667 72.3594 115.445 67.7897C115.371 65.8563 115.113 63.923 115.076 62.0248C115.039 60.2321 115.187 58.4042 115.261 56.6114C115.297 55.8381 115.667 55.6623 116.407 55.9084C116.517 56.0842 116.702 56.2248 116.887 56.3654Z" fill="white"/>
<path d="M206.647 77.7024C205.982 79.2491 205.871 80.9012 205.353 82.4127C205.242 82.4127 205.168 82.3776 205.057 82.3776C205.02 82.0964 204.983 81.8503 204.983 81.5691C205.094 78.6163 205.168 75.6987 205.353 72.746C205.686 67.5787 206.388 62.4465 208.274 57.5605C208.902 55.9083 209.641 54.2562 210.751 52.8501C213.19 49.7919 217.516 49.5107 220.51 52.1119C223.098 54.3617 224.503 57.209 225.427 60.3375C226.758 64.872 227.054 69.512 226.684 74.1872C226.314 78.7569 225.353 83.1509 223.653 87.4394C222.543 90.1461 221.065 92.6067 218.994 94.7158C218.218 95.5243 217.331 96.2273 216.333 96.7898C214.484 97.8443 212.636 97.4928 211.194 95.9461C210.011 94.6455 209.272 93.134 208.754 91.517C207.904 88.8103 207.423 86.0333 207.128 83.2212C206.943 81.3933 206.795 79.5303 206.647 77.7024ZM208.458 72.1133C208.458 76.4369 208.791 80.1279 209.346 83.7836C209.752 86.3497 210.233 88.9158 211.379 91.3412C211.749 92.1146 212.155 92.8528 212.71 93.5207C213.523 94.5049 214.115 94.6104 215.224 93.9425C215.889 93.5558 216.518 93.0285 217.035 92.5013C218.921 90.5328 220.067 88.1776 220.991 85.6818C223.431 79.0382 224.022 72.2187 223.061 65.2938C222.691 62.4465 221.73 59.7047 220.177 57.2441C219.401 55.9786 218.366 54.9592 216.887 54.3968C215.335 53.7992 213.856 54.2562 213.006 55.592C212.858 55.838 212.71 56.1192 212.562 56.3653C211.268 58.6853 210.64 61.2162 209.826 63.712C208.828 66.6296 208.089 69.6175 208.458 72.1133Z" fill="white"/>
<path d="M250.196 90.9197C249.494 90.5682 249.272 89.9706 249.198 89.3379C248.976 87.1936 248.68 85.0845 248.643 82.9403C248.569 79.2493 248.569 75.5233 248.754 71.8323C248.939 68.1766 249.346 64.5559 249.641 60.9002C249.826 58.6505 249.937 56.3656 250.048 54.1159C250.085 53.6589 250.048 53.202 250.048 52.7801C250.935 52.5692 251.194 52.9207 251.342 53.4832C254.004 63.9935 258.107 74.0117 262.433 83.9597C262.544 84.2409 262.691 84.4869 263.024 84.7682C263.061 84.4518 263.135 84.1003 263.098 83.7839C263.024 81.0069 262.839 78.2299 262.839 75.453C262.802 71.0239 262.728 66.5947 262.876 62.1656C263.061 57.1741 263.616 52.1826 264.429 47.2613C264.503 46.8747 264.614 46.488 264.983 46.1013C265.057 46.2771 265.131 46.4528 265.168 46.6286C265.464 49.7219 265.76 52.8153 266.056 55.9086C266.573 61.4977 266.203 67.122 266.314 72.7111C266.388 76.8239 266.462 80.9718 266.573 85.0845C266.61 86.6663 266.721 88.2833 266.795 89.8652C266.869 91.1658 266.573 92.3609 265.575 93.3452C264.762 94.1537 264.318 94.1536 263.727 93.2397C263.283 92.5367 262.876 91.7633 262.544 90.99C258.292 81.4639 254.817 71.7269 251.897 61.779C251.823 61.5329 251.712 61.2868 251.601 61.0056C251.527 61.0056 251.416 61.0408 251.342 61.0408C251.342 61.8141 251.342 62.5874 251.342 63.3608C251.268 68.2117 251.083 73.0275 251.157 77.8784C251.194 81.1475 251.601 84.4166 251.934 87.6857C252.044 89.127 251.564 90.1815 250.196 90.9197Z" fill="white"/>
<path d="M150.566 53.1315C147.793 53.1315 145.242 53.1667 142.654 53.0964C141.397 53.0612 140.103 52.8854 138.847 52.6394C137.885 52.4636 137.553 51.9364 137.516 50.9873C137.479 50.46 137.738 50.1788 138.218 50.1085C138.44 50.0733 138.662 50.0733 138.884 50.0733C142.469 49.8976 146.055 49.7218 149.604 49.546C150.122 49.5109 150.603 49.4757 150.972 48.9485C151.268 48.4915 151.896 48.5969 152.303 48.843C152.858 49.1594 153.338 49.1594 153.93 49.0891C156.961 48.7727 159.993 48.5266 163.024 48.2806C166.277 48.0345 169.457 48.386 172.636 49.1242C173.375 49.3 174.152 49.4757 174.891 49.8272C167.793 52.1121 160.436 52.5339 152.932 52.8854C152.932 53.5885 152.932 54.1509 152.932 54.7485C153.006 57.3497 153.079 59.9509 153.19 62.5873C153.338 66.4188 153.486 70.2504 153.671 74.0468C153.819 77.2104 154.041 80.3389 154.262 83.5025C154.484 86.9123 154.78 90.2868 155.002 93.6965C155.076 95.0323 155.076 96.4032 155.039 97.739C155.002 99.4263 153.93 100.621 152.71 101.676C152.266 102.063 151.823 101.992 151.49 101.5C150.75 100.481 150.529 99.3208 150.64 98.1608C150.935 95.5596 151.12 92.9583 150.861 90.3571C150.713 88.7401 150.75 87.088 150.713 85.4359C150.64 82.6589 150.492 79.8819 150.455 77.1049C150.381 72.2892 150.27 67.5085 150.27 62.6928C150.27 59.9861 150.418 57.3146 150.529 54.6079C150.566 54.1861 150.566 53.7291 150.566 53.1315Z" fill="white"/>
<path d="M246.906 66.4541C246.573 75.5584 244.946 83.5027 240.954 90.9197C240.177 92.396 239.105 93.6966 237.848 94.8215C235.889 96.5439 234.041 96.3682 232.451 94.3294C231.009 92.5015 230.344 90.3572 229.863 88.1778C229.235 85.5063 228.754 82.8348 228.68 80.0929C228.606 77.9135 228.458 75.7341 228.532 73.5547C228.643 70.6371 228.865 67.6844 229.752 64.8371C229.937 64.2747 230.048 63.7123 230.64 63.3607C230.898 63.2201 230.972 62.728 231.12 62.3765C231.933 60.4783 232.673 58.545 233.56 56.6468C233.856 55.9789 234.41 55.3813 234.891 54.7837C236.665 52.5692 238.699 52.2528 241.397 53.0613C242.765 53.4831 243.616 54.5728 244.392 55.6625C245.427 57.2092 245.982 58.9316 246.277 60.7595C246.573 62.8335 246.758 65.0832 246.906 66.4541ZM243.874 67.7899C243.8 66.5595 243.726 64.9777 243.542 63.431C243.357 61.6383 242.876 59.8807 241.989 58.2637C241.397 57.2092 240.621 56.2953 239.327 56.225C237.922 56.1547 237.035 57.0686 236.518 58.1935C235.704 59.951 234.854 61.7438 234.336 63.6068C232.895 68.985 232.155 74.4687 231.933 80.0226C231.86 81.7451 231.786 83.4675 231.675 85.1899C231.638 85.9633 231.305 86.8069 231.453 87.5099C231.897 89.3378 232.562 91.1657 233.782 92.7124C234.595 93.7318 235.15 93.8021 236.222 93.0639C236.592 92.7827 236.998 92.4663 237.257 92.0797C237.996 90.99 238.773 89.9002 239.29 88.7051C242.322 82.1317 243.616 75.2069 243.874 67.7899Z" fill="white"/>
<path d="M194.115 52.4286C191.416 53.2371 189.05 54.6081 187.054 56.4711C185.464 57.9826 185.242 59.5996 186.277 61.5329C187.275 63.396 188.828 64.8723 190.27 66.3838C193.523 69.7584 196.924 73.0275 199.549 76.8942C200.214 77.8784 200.843 78.8978 201.36 79.9524C202.987 83.0809 202.691 86.1391 200.843 89.0918C198.403 93.0288 194.817 95.7706 190.529 97.704C189.272 98.2664 187.904 98.7234 186.573 99.1803C185.316 99.6373 183.985 99.6725 182.654 99.6022C181.767 99.567 181.065 99.2155 180.547 98.5125C179.808 97.5634 179.697 96.5088 179.66 95.4191C179.623 94.8215 179.956 94.3997 180.51 94.0834C181.028 93.8021 181.471 93.7318 181.915 94.224C182.506 94.927 183.357 95.0676 184.207 94.8918C188.976 93.9076 193.227 91.9391 196.554 88.4591C197.183 87.7912 197.7 86.9476 198.107 86.1391C198.736 84.8736 198.81 83.6082 198.218 82.2372C197.035 79.5657 195.298 77.2457 193.412 75.0312C191.416 72.676 189.309 70.3911 187.312 68.0711C186.388 66.9814 185.538 65.8566 184.688 64.7317C183.726 63.4311 183.246 61.9196 183.061 60.3729C182.876 58.7559 183.32 57.2796 184.429 56.0141C187.201 52.8856 190.713 51.0226 195.002 50.5305C195.63 50.4601 196.333 50.6008 196.924 50.7765C197.664 51.0226 197.774 51.5499 197.405 52.1826C196.628 53.448 195.15 53.5535 194.115 52.4286Z" fill="white"/>
<path d="M106.203 59.8453C107.571 59.6344 107.83 59.775 107.978 60.7944C108.273 62.9035 108.569 65.0477 108.791 67.1568C109.161 70.8478 109.493 74.5035 109.752 78.1945C110.011 81.3933 110.159 84.5569 110.381 87.7557C110.528 89.6891 110.676 91.6224 110.898 93.5206C111.083 95.0321 110.381 96.1218 109.308 97.0709C108.717 97.5982 108.384 97.5279 107.904 96.9655C107.275 96.2273 107.275 95.3133 107.127 94.4697C107.053 94.0479 107.09 93.6261 107.09 93.2042C107.016 88.4939 106.943 83.7836 106.795 79.0733C106.721 75.8393 106.647 72.6053 106.314 69.3714C106.129 67.7544 106.018 66.1023 106.018 64.4853C106.055 62.9035 106.129 61.3568 106.203 59.8453Z" fill="white"/>
</svg>
