<svg width="380" height="270" viewBox="0 0 380 270" fill="none" xmlns="http://www.w3.org/2000/svg">
<path d="M311.904 97.0889C320.739 95.6828 329.538 94.2768 338.373 92.8707C338.41 92.9762 338.447 93.0465 338.521 93.1519C338.225 93.3628 337.967 93.6089 337.671 93.7495C332.606 95.9641 327.615 98.2841 322.514 100.393C318.595 102.01 314.418 102.608 310.203 102.924C307.209 103.135 304.288 103.451 302.403 105.982C300.148 105.033 299.186 102.924 300.222 101.096C302.329 97.335 304.547 93.6089 306.728 89.8828C308.244 87.3167 309.833 84.7858 311.275 82.2197C311.904 81.0949 312.791 80.6379 314.011 80.7082C315.231 80.7785 315.674 81.4113 315.231 82.501C314.713 83.7313 314.159 84.9616 313.493 86.1567C312.31 88.301 311.053 90.4101 309.87 92.5543C309.649 92.9761 309.501 93.4331 309.168 94.3471C309.944 93.9604 310.388 93.8198 310.684 93.5737C320.111 85.6998 329.427 77.6852 338.928 69.9167C348.429 62.113 358.151 54.5554 367.726 46.8572C370.277 44.7832 372.754 42.639 375.194 40.4244C376.081 39.6159 377.005 39.1589 378.225 39.2293C379.815 39.2996 380.406 40.1432 379.704 41.5493C379.149 42.6038 378.484 43.7638 377.597 44.5372C374.307 47.3493 370.942 50.0911 367.504 52.7626C349.427 66.9288 331.275 81.0597 313.198 95.1907C312.643 95.6125 312.162 96.1047 311.645 96.5616C311.719 96.6671 311.83 96.878 311.904 97.0889Z" fill="#11F200"/>
<path d="M34.5287 83.5556C34.122 83.0635 33.7893 82.5362 33.3457 82.0441C25.0277 72.764 16.7098 63.484 8.39187 54.2039C5.47135 52.3409 3.99261 49.2827 1.66359 46.9275C0.961183 46.2245 0.221811 45.4512 0 44.3263C0.998152 44.1154 1.36784 44.7481 1.81146 45.17C12.1627 55.5397 22.329 66.0501 32.0887 76.9471C34.4177 79.5834 36.7837 82.1847 39.1497 84.821C39.5194 85.2429 39.963 85.5592 40.6654 86.192C40.0739 82.1144 39.3346 78.4586 39.0018 74.7677C38.6691 71.0416 38.78 67.3155 39.0388 63.5543C40.2588 67.5967 41.4418 71.6392 42.6617 75.6816C43.9926 80.1107 45.3235 84.5047 46.6543 88.9338C46.9501 89.918 47.2828 90.9023 46.8392 91.9217C46.3956 92.9411 47.098 93.609 47.7634 94.2769C48.5028 95.015 49.0203 95.7532 48.5028 96.8429C47.6155 98.8114 47.098 99.0223 45.2126 97.9326C37.8928 93.6793 30.4991 89.4611 23.1423 85.3132C21.5896 84.4344 20.5915 83.2744 20.1109 81.6574C19.7782 80.4974 20.1109 79.8647 21.3678 79.8295C22.6248 79.7944 23.9556 79.7944 25.1017 80.2162C27.5416 81.0598 29.9076 82.2198 32.2736 83.2041C32.902 83.4853 33.5675 83.7313 34.1959 84.0126C34.3068 83.872 34.4177 83.7313 34.5287 83.5556Z" fill="#11F200"/>
<path d="M326.1 219.733C322.218 220.225 319.113 218.819 316.044 217.167C313.937 216.042 311.793 214.988 309.649 213.898C309.242 213.687 308.799 213.546 308.281 213.3C308.059 214.285 308.725 214.812 309.131 215.409C313.198 221.034 317.375 226.623 321.331 232.282C327.246 240.719 333.087 249.225 338.891 257.732C340.296 259.806 341.442 262.091 342.625 264.305C343.401 265.711 343.586 267.223 342.92 268.734C342.736 269.121 342.403 269.438 342.033 269.93C341.627 269.191 341.294 268.664 340.998 268.137C336.673 259.595 331.312 251.651 325.878 243.742C319.704 234.708 313.494 225.674 307.246 216.64C306.987 216.253 306.617 215.902 306.1 215.339C305.767 216.71 306.174 217.729 306.359 218.749C307.172 223.389 308.059 228.029 308.872 232.669C309.094 233.97 308.429 234.989 307.616 236.008C306.506 235.622 306.248 234.778 306.063 233.899C305.471 230.946 304.917 227.994 304.288 225.076C303.105 219.522 301.885 213.968 300.665 208.414C300.259 206.516 301.368 205.497 303.364 205.954C303.993 206.094 304.621 206.411 305.176 206.727C310.129 209.293 315.046 211.894 320.037 214.425C322.551 215.761 324.695 217.308 326.1 219.733Z" fill="#11F200"/>
<path d="M46.1368 234.708C44.8799 231.579 45.4344 228.767 45.9519 225.955C46.4695 223.248 46.9871 220.577 47.4677 217.87C47.5416 217.518 47.4677 217.167 47.2828 216.745C45.841 218.151 45.0277 219.944 43.9926 221.596C42.9575 223.248 41.9593 224.9 40.9242 226.552C39.8521 228.24 38.817 229.962 37.7449 231.649C36.7098 233.372 35.6377 235.059 34.6026 236.782C33.5675 238.504 32.5324 240.191 31.4972 241.914C30.4991 243.566 29.5009 245.253 28.5028 246.905C27.5046 248.628 26.5065 250.385 25.5083 252.108C24.5102 253.83 23.512 255.588 22.5508 257.345C21.6266 259.033 20.8133 260.79 19.8152 262.477C18.78 264.165 18.0776 266.063 16.6359 267.504C14.6396 266.204 14.122 264.657 15.4159 263.321C17.4492 261.212 18.7061 258.681 20.1479 256.22C27.5786 243.636 35.6377 231.439 43.7708 219.276C44.3993 218.327 45.1756 217.483 45.3974 216.358C45.2865 216.253 45.1756 216.148 45.0647 216.042C44.5841 216.394 44.1035 216.745 43.6229 217.132C41.0721 219.276 38.5213 221.455 35.9704 223.635C35.7856 223.811 35.5638 223.951 35.342 224.127C34.6765 224.549 34.0481 225.182 33.2717 224.303C32.4954 223.424 32.4584 222.51 33.3087 221.772C34.6765 220.542 36.1553 219.417 37.4861 218.186C41.3678 214.671 45.2126 211.121 49.0573 207.535C49.8706 206.797 50.647 206.2 51.8669 206.305C52.6802 206.375 53.0869 206.762 53.0869 207.535C53.0869 207.992 53.0869 208.449 52.976 208.871C51.5342 215.937 50.0924 223.002 48.6137 230.032C48.3179 231.72 47.5786 233.266 46.1368 234.708Z" fill="#11F200"/>
<path d="M178.706 59.8985C180.074 55.6451 181.516 51.4269 183.771 47.4899C186.026 43.5529 188.872 40.0026 192.052 36.628C191.793 37.1905 191.497 37.7881 191.201 38.3505C188.022 44.4669 185.102 50.7239 182.736 57.1566C182.218 58.5978 181.848 60.1094 181.331 61.5506C181.035 62.3942 180.665 63.2027 180.185 63.976C179.741 64.7494 179.224 65.5579 178.115 65.5579C176.821 65.5227 175.49 65.6985 174.639 64.3276C173.53 62.4997 172.237 60.7772 171.164 58.9494C169.649 56.3833 168.207 53.7821 166.802 51.1808C166.395 50.4075 166.174 49.5639 165.878 48.7554C167.615 47.8414 168.244 47.982 169.279 49.4936C170.721 51.6378 172.126 53.8172 173.604 55.9615C174.048 56.5942 174.566 57.1566 175.157 57.9651C175.97 56.4184 175.601 55.0124 175.453 53.7118C174.861 47.6305 174.122 41.5493 173.493 35.468C172.902 29.7735 172.347 24.0437 171.867 18.3492C171.534 14.3419 171.312 10.3346 171.164 6.3273C171.09 4.60487 171.386 2.88244 171.571 1.19516C171.608 0.913944 171.83 0.667882 172.163 0C172.273 0.738185 172.421 1.0194 172.384 1.30061C171.682 4.85093 171.978 8.40125 172.347 11.9516C172.532 13.9201 172.606 15.8886 172.828 17.8571C173.309 22.2862 173.789 26.7153 174.344 31.1444C174.898 35.7141 175.527 40.2487 176.081 44.7832C176.636 49.3881 177.19 54.0281 177.745 58.633C177.782 59.0548 178.041 59.4415 178.188 59.8282C178.336 59.8633 178.521 59.8985 178.706 59.8985Z" fill="#11F200"/>
</svg>
